<?xml version="1.0" encoding="utf-8"?>
<!-- Generator: Adobe Illustrator 16.0.0, SVG Export Plug-In . SVG Version: 6.00 Build 0)  -->
<!DOCTYPE svg PUBLIC "-//W3C//DTD SVG 1.1//EN" "http://www.w3.org/Graphics/SVG/1.1/DTD/svg11.dtd">
<svg version="1.1" id="Capa_1" xmlns="http://www.w3.org/2000/svg" xmlns:xlink="http://www.w3.org/1999/xlink" x="0px" y="0px"
	 width="21.958px" height="21.75px" viewBox="0 0 21.958 21.75" enable-background="new 0 0 21.958 21.75" xml:space="preserve">
<g>
	<path fill="#913944" d="M0.538,10.853c0.048-1.597,0.067-3.22,0.152-4.839c0.16-3.061,2.34-5.347,5.4-5.449
		c3.291-0.109,6.591-0.112,9.882,0c3.071,0.104,5.31,2.413,5.387,5.493c0.083,3.216,0.082,6.438,0.002,9.655
		c-0.079,3.117-2.389,5.417-5.508,5.494c-3.19,0.078-6.388,0.087-9.578,0.003c-3.206-0.085-5.404-2.303-5.587-5.501
		C0.597,14.102,0.586,12.489,0.538,10.853z M19.622,10.845c-0.039-1.508-0.058-3.043-0.127-4.576
		c-0.104-2.261-1.508-3.768-3.762-3.829C12.604,2.356,9.47,2.359,6.341,2.438C4.119,2.495,2.65,3.943,2.591,6.139
		c-0.083,3.129-0.042,6.261-0.01,9.393c0.006,0.538,0.157,1.104,0.365,1.604c0.609,1.465,1.838,2.084,3.339,2.193
		c1.166,0.085,2.338,0.107,3.507,0.105c1.938-0.006,3.875-0.031,5.811-0.092c0.972-0.031,1.888-0.297,2.638-0.97
		c0.877-0.784,1.204-1.813,1.258-2.937C19.567,13.917,19.583,12.395,19.622,10.845z"/>
	<path fill="#913944" d="M10.999,16.242c-2.955-0.003-5.337-2.396-5.333-5.362C5.67,7.895,8.05,5.519,11.038,5.518
		c2.97,0,5.371,2.414,5.354,5.383C16.375,13.887,13.993,16.246,10.999,16.242z M11.017,14.346c1.928,0,3.47-1.519,3.479-3.425
		c0.008-1.964-1.526-3.511-3.477-3.504c-1.926,0.007-3.453,1.529-3.456,3.445C7.56,12.809,9.085,14.346,11.017,14.346z"/>
	<path fill="#913944" d="M16.638,4.062c0.711,0.019,1.245,0.589,1.218,1.301c-0.025,0.684-0.604,1.223-1.289,1.204
		c-0.679-0.019-1.232-0.597-1.225-1.275C15.354,4.583,15.922,4.043,16.638,4.062z"/>
</g>
</svg>
