<?xml version="1.0" encoding="utf-8"?>
<!-- Generator: Adobe Illustrator 16.0.0, SVG Export Plug-In . SVG Version: 6.00 Build 0)  -->
<!DOCTYPE svg PUBLIC "-//W3C//DTD SVG 1.1//EN" "http://www.w3.org/Graphics/SVG/1.1/DTD/svg11.dtd">
<svg version="1.1" id="Capa_1" xmlns="http://www.w3.org/2000/svg" xmlns:xlink="http://www.w3.org/1999/xlink" x="0px" y="0px"
	 width="23.75px" height="22px" viewBox="0 11 23.75 22" enable-background="new 0 11 23.75 22" xml:space="preserve">
<g>
	<path fill="#FFFFFF" d="M19.361,12.287c0,0.028,0,0.051,0,0.074c0,3.159,0,6.318,0.002,9.477c0,0.055-0.018,0.082-0.066,0.107
		c-2.044,1.084-4.088,2.168-6.131,3.252c-0.044,0.023-0.074,0.02-0.115-0.008c-0.313-0.211-0.628-0.416-0.941-0.625
		c-0.164-0.109-0.303-0.109-0.466,0c-0.317,0.211-0.635,0.42-0.952,0.633c-0.033,0.021-0.057,0.023-0.094,0.004
		c-2.051-1.088-4.102-2.174-6.153-3.262c-0.039-0.02-0.055-0.043-0.055-0.09c0.001-3.166,0.001-6.333,0.001-9.5
		c0-0.019,0-0.039,0-0.063C9.379,12.287,14.367,12.287,19.361,12.287z M12.8,18.867c0.011,0.018,0.019,0.027,0.024,0.037
		c0.316,0.463,0.848,0.674,1.396,0.551c0.514-0.117,0.942-0.584,0.993-1.098c0.033-0.33,0.023-0.66-0.031-0.99
		c-0.134-0.803-0.506-1.478-1.127-2.003c-0.803-0.681-1.732-0.937-2.771-0.756c-0.873,0.152-1.577,0.598-2.104,1.309
		c-0.599,0.809-0.775,1.72-0.597,2.696c0.194,1.07,0.795,1.857,1.749,2.373c0.487,0.264,1.016,0.379,1.568,0.379
		c0.97,0,1.938,0,2.907,0c0.015,0,0.027,0,0.041,0c0.271-0.014,0.443-0.262,0.353-0.506c-0.058-0.156-0.194-0.242-0.382-0.242
		c-0.963,0-1.926,0.002-2.891-0.002c-0.144,0-0.291-0.01-0.434-0.029c-0.695-0.104-1.257-0.439-1.687-0.992
		c-0.45-0.578-0.598-1.244-0.523-1.965c0.055-0.533,0.255-1.012,0.611-1.416c0.64-0.725,1.446-1.024,2.4-0.877
		c0.753,0.115,1.339,0.517,1.761,1.151c0.262,0.395,0.396,0.835,0.417,1.306c0.007,0.158,0.01,0.32-0.01,0.479
		c-0.031,0.256-0.263,0.459-0.512,0.469c-0.282,0.012-0.524-0.16-0.584-0.426c-0.02-0.09-0.016-0.186-0.021-0.277
		c-0.01-0.223,0.005-0.449-0.029-0.668c-0.134-0.862-0.988-1.458-1.853-1.305c-0.893,0.158-1.481,0.999-1.319,1.883
		c0.185,1.008,1.263,1.592,2.209,1.197C12.519,19.076,12.665,18.986,12.8,18.867z"/>
	<path fill="#FFFFFF" d="M21.535,31.713c-6.445,0-12.876,0-19.319,0c0.023-0.018,0.038-0.029,0.055-0.039
		c3.183-2.111,6.367-4.221,9.551-6.334c0.039-0.025,0.064-0.029,0.107,0c3.183,2.111,6.366,4.223,9.551,6.332
		C21.496,31.684,21.51,31.693,21.535,31.713z"/>
	<path fill="#FFFFFF" d="M13.816,25.697c2.868-1.523,5.725-3.037,8.588-4.557c0,3.418,0,6.828,0,10.25
		C19.543,29.492,16.684,27.598,13.816,25.697z"/>
	<path fill="#FFFFFF" d="M9.935,25.697c-2.868,1.9-5.727,3.795-8.59,5.693c0-3.42,0-6.832,0-10.25
		C4.208,22.66,7.067,24.174,9.935,25.697z"/>
	<path fill="#FFFFFF" d="M21.541,20.139c-0.486,0-0.955,0-1.426,0c0-0.311,0-0.623,0-0.943
		C20.586,19.508,21.055,19.818,21.541,20.139z"/>
	<path fill="#FFFFFF" d="M2.214,20.139c0.479-0.316,0.947-0.629,1.423-0.943c0,0.318,0,0.629,0,0.943
		C3.169,20.139,2.7,20.139,2.214,20.139z"/>
	<path fill="#FFFFFF" d="M3.638,21.51c-0.386-0.205-0.766-0.406-1.16-0.615c0.397,0,0.776,0,1.16,0
		C3.638,21.098,3.638,21.299,3.638,21.51z"/>
	<path fill="#FFFFFF" d="M21.273,20.895c-0.395,0.211-0.775,0.41-1.162,0.617c0-0.211,0-0.412,0-0.617
		C20.494,20.895,20.875,20.895,21.273,20.895z"/>
	<path fill="#FFFFFF" d="M12.602,17.654c0.001,0.48-0.384,0.867-0.865,0.867c-0.479,0-0.866-0.385-0.866-0.861
		c0-0.482,0.384-0.87,0.865-0.87C12.217,16.79,12.602,17.174,12.602,17.654z"/>
</g>
</svg>
